<mxfile modified="2020-07-26T21:20:25.247Z" host="app.diagrams.net" agent="5.0 (Windows NT 10.0; Win64; x64) AppleWebKit/537.36 (KHTML, like Gecko) Chrome/83.0.4103.116 Safari/537.36" etag="HTWtTZY-RB5cp7c4KK39" version="13.5.3" type="github">
  <diagram id="Ht1M8jgEwFfnCIfOTk4-" name="Page-1">
    <mxGraphModel dx="1672" dy="1504" grid="1" gridSize="10" guides="1" tooltips="1" connect="1" arrows="1" fold="1" page="1" pageScale="1" pageWidth="1169" pageHeight="827" math="0" shadow="0">
      <root>
        <mxCell id="0" />
        <mxCell id="1" parent="0" />
        <mxCell id="T6SNYKoOjUwyvL6z8UAZ-1" value="" style="group" vertex="1" connectable="0" parent="1">
          <mxGeometry x="120" y="20" width="951" height="740" as="geometry" />
        </mxCell>
        <mxCell id="T6SNYKoOjUwyvL6z8UAZ-2" value="AWS Cloud" style="points=[[0,0],[0.25,0],[0.5,0],[0.75,0],[1,0],[1,0.25],[1,0.5],[1,0.75],[1,1],[0.75,1],[0.5,1],[0.25,1],[0,1],[0,0.75],[0,0.5],[0,0.25]];outlineConnect=0;gradientColor=none;html=1;whiteSpace=wrap;fontSize=12;fontStyle=0;shape=mxgraph.aws4.group;grIcon=mxgraph.aws4.group_aws_cloud_alt;strokeColor=#232F3E;fillColor=none;verticalAlign=top;align=left;spacingLeft=30;fontColor=#232F3E;dashed=0;labelBackgroundColor=#ffffff;" vertex="1" parent="T6SNYKoOjUwyvL6z8UAZ-1">
          <mxGeometry y="130" width="951" height="610" as="geometry" />
        </mxCell>
        <mxCell id="T6SNYKoOjUwyvL6z8UAZ-3" value="" style="rounded=0;whiteSpace=wrap;html=1;labelBackgroundColor=#FFF4C3;fillColor=#ffe6cc;strokeColor=#d79b00;" vertex="1" parent="T6SNYKoOjUwyvL6z8UAZ-1">
          <mxGeometry x="720" y="200" width="170" height="530" as="geometry" />
        </mxCell>
        <mxCell id="T6SNYKoOjUwyvL6z8UAZ-4" value="" style="rounded=0;whiteSpace=wrap;html=1;fillColor=#fff2cc;strokeColor=#d6b656;" vertex="1" parent="T6SNYKoOjUwyvL6z8UAZ-1">
          <mxGeometry x="330" y="200" width="380" height="530" as="geometry" />
        </mxCell>
        <mxCell id="T6SNYKoOjUwyvL6z8UAZ-5" value="VPC" style="points=[[0,0],[0.25,0],[0.5,0],[0.75,0],[1,0],[1,0.25],[1,0.5],[1,0.75],[1,1],[0.75,1],[0.5,1],[0.25,1],[0,1],[0,0.75],[0,0.5],[0,0.25]];outlineConnect=0;gradientColor=none;html=1;whiteSpace=wrap;fontSize=12;fontStyle=0;shape=mxgraph.aws4.group;grIcon=mxgraph.aws4.group_vpc;strokeColor=#248814;fillColor=none;verticalAlign=top;align=left;spacingLeft=30;fontColor=#AAB7B8;dashed=0;" vertex="1" parent="T6SNYKoOjUwyvL6z8UAZ-1">
          <mxGeometry x="310" y="180" width="621" height="520" as="geometry" />
        </mxCell>
        <mxCell id="T6SNYKoOjUwyvL6z8UAZ-6" value="Private subnet" style="points=[[0,0],[0.25,0],[0.5,0],[0.75,0],[1,0],[1,0.25],[1,0.5],[1,0.75],[1,1],[0.75,1],[0.5,1],[0.25,1],[0,1],[0,0.75],[0,0.5],[0,0.25]];outlineConnect=0;gradientColor=none;html=1;whiteSpace=wrap;fontSize=12;fontStyle=0;shape=mxgraph.aws4.group;grIcon=mxgraph.aws4.group_security_group;grStroke=0;strokeColor=#147EBA;fillColor=#E6F2F8;verticalAlign=top;align=left;spacingLeft=30;fontColor=#147EBA;dashed=0;" vertex="1" parent="T6SNYKoOjUwyvL6z8UAZ-1">
          <mxGeometry x="365" y="523" width="130" height="130" as="geometry" />
        </mxCell>
        <mxCell id="T6SNYKoOjUwyvL6z8UAZ-7" value="Private subnet" style="points=[[0,0],[0.25,0],[0.5,0],[0.75,0],[1,0],[1,0.25],[1,0.5],[1,0.75],[1,1],[0.75,1],[0.5,1],[0.25,1],[0,1],[0,0.75],[0,0.5],[0,0.25]];outlineConnect=0;gradientColor=none;html=1;whiteSpace=wrap;fontSize=12;fontStyle=0;shape=mxgraph.aws4.group;grIcon=mxgraph.aws4.group_security_group;grStroke=0;strokeColor=#147EBA;fillColor=#E6F2F8;verticalAlign=top;align=left;spacingLeft=30;fontColor=#147EBA;dashed=0;" vertex="1" parent="T6SNYKoOjUwyvL6z8UAZ-1">
          <mxGeometry x="365" y="380" width="130" height="130" as="geometry" />
        </mxCell>
        <mxCell id="T6SNYKoOjUwyvL6z8UAZ-8" value="Public subnet" style="points=[[0,0],[0.25,0],[0.5,0],[0.75,0],[1,0],[1,0.25],[1,0.5],[1,0.75],[1,1],[0.75,1],[0.5,1],[0.25,1],[0,1],[0,0.75],[0,0.5],[0,0.25]];outlineConnect=0;gradientColor=none;html=1;whiteSpace=wrap;fontSize=12;fontStyle=0;shape=mxgraph.aws4.group;grIcon=mxgraph.aws4.group_security_group;grStroke=0;strokeColor=#248814;fillColor=#E9F3E6;verticalAlign=top;align=left;spacingLeft=30;fontColor=#248814;dashed=0;" vertex="1" parent="T6SNYKoOjUwyvL6z8UAZ-1">
          <mxGeometry x="565" y="240" width="130" height="130" as="geometry" />
        </mxCell>
        <mxCell id="T6SNYKoOjUwyvL6z8UAZ-9" value="Public subnet" style="points=[[0,0],[0.25,0],[0.5,0],[0.75,0],[1,0],[1,0.25],[1,0.5],[1,0.75],[1,1],[0.75,1],[0.5,1],[0.25,1],[0,1],[0,0.75],[0,0.5],[0,0.25]];outlineConnect=0;gradientColor=none;html=1;whiteSpace=wrap;fontSize=12;fontStyle=0;shape=mxgraph.aws4.group;grIcon=mxgraph.aws4.group_security_group;grStroke=0;strokeColor=#248814;fillColor=#E9F3E6;verticalAlign=top;align=left;spacingLeft=30;fontColor=#248814;dashed=0;" vertex="1" parent="T6SNYKoOjUwyvL6z8UAZ-1">
          <mxGeometry x="365" y="240" width="130" height="130" as="geometry" />
        </mxCell>
        <mxCell id="T6SNYKoOjUwyvL6z8UAZ-10" value="" style="html=1;verticalLabelPosition=bottom;align=center;labelBackgroundColor=#ffffff;verticalAlign=top;strokeWidth=2;strokeColor=#0080F0;shadow=0;dashed=0;shape=mxgraph.ios7.icons.user;" vertex="1" parent="T6SNYKoOjUwyvL6z8UAZ-1">
          <mxGeometry y="20" width="30" height="30" as="geometry" />
        </mxCell>
        <mxCell id="T6SNYKoOjUwyvL6z8UAZ-11" value="&lt;span style=&quot;color: rgb(35 , 47 , 62) ; font-family: &amp;#34;helvetica&amp;#34; ; background-color: rgb(255 , 255 , 255)&quot;&gt;User&lt;/span&gt;" style="text;whiteSpace=wrap;html=1;" vertex="1" parent="T6SNYKoOjUwyvL6z8UAZ-1">
          <mxGeometry y="50" width="30" height="30" as="geometry" />
        </mxCell>
        <mxCell id="T6SNYKoOjUwyvL6z8UAZ-12" value="Amazon API Gateway" style="outlineConnect=0;fontColor=#232F3E;gradientColor=none;strokeColor=#ffffff;fillColor=#232F3E;dashed=0;verticalLabelPosition=middle;verticalAlign=bottom;align=center;html=1;whiteSpace=wrap;fontSize=10;fontStyle=1;spacing=3;shape=mxgraph.aws4.productIcon;prIcon=mxgraph.aws4.api_gateway;" vertex="1" parent="T6SNYKoOjUwyvL6z8UAZ-1">
          <mxGeometry x="190" y="375" width="80" height="110" as="geometry" />
        </mxCell>
        <mxCell id="T6SNYKoOjUwyvL6z8UAZ-13" value="Amazon Route 53" style="outlineConnect=0;fontColor=#232F3E;gradientColor=none;strokeColor=#ffffff;fillColor=#232F3E;dashed=0;verticalLabelPosition=middle;verticalAlign=bottom;align=center;html=1;whiteSpace=wrap;fontSize=10;fontStyle=1;spacing=3;shape=mxgraph.aws4.productIcon;prIcon=mxgraph.aws4.route_53;" vertex="1" parent="T6SNYKoOjUwyvL6z8UAZ-1">
          <mxGeometry x="191" width="80" height="110" as="geometry" />
        </mxCell>
        <mxCell id="T6SNYKoOjUwyvL6z8UAZ-14" value="Amazon Cloudfront" style="outlineConnect=0;fontColor=#232F3E;gradientColor=none;strokeColor=#ffffff;fillColor=#232F3E;dashed=0;verticalLabelPosition=middle;verticalAlign=bottom;align=center;html=1;whiteSpace=wrap;fontSize=10;fontStyle=1;spacing=3;shape=mxgraph.aws4.productIcon;prIcon=mxgraph.aws4.cloudfront;" vertex="1" parent="T6SNYKoOjUwyvL6z8UAZ-1">
          <mxGeometry x="351" width="80" height="110" as="geometry" />
        </mxCell>
        <mxCell id="T6SNYKoOjUwyvL6z8UAZ-15" value="" style="edgeStyle=orthogonalEdgeStyle;rounded=0;orthogonalLoop=1;jettySize=auto;html=1;" edge="1" parent="T6SNYKoOjUwyvL6z8UAZ-1" source="T6SNYKoOjUwyvL6z8UAZ-13" target="T6SNYKoOjUwyvL6z8UAZ-14">
          <mxGeometry relative="1" as="geometry" />
        </mxCell>
        <mxCell id="T6SNYKoOjUwyvL6z8UAZ-16" value="" style="outlineConnect=0;fontColor=#232F3E;gradientColor=#4AB29A;gradientDirection=north;fillColor=#116D5B;strokeColor=#ffffff;dashed=0;verticalLabelPosition=bottom;verticalAlign=top;align=center;html=1;fontSize=12;fontStyle=0;aspect=fixed;shape=mxgraph.aws4.resourceIcon;resIcon=mxgraph.aws4.personalize;" vertex="1" parent="T6SNYKoOjUwyvL6z8UAZ-1">
          <mxGeometry x="31" y="540" width="78" height="78" as="geometry" />
        </mxCell>
        <mxCell id="T6SNYKoOjUwyvL6z8UAZ-17" value="&lt;span style=&quot;color: rgb(35 , 47 , 62) ; font-family: &amp;#34;helvetica&amp;#34; ; font-size: 12px ; font-style: normal ; font-weight: 400 ; letter-spacing: normal ; text-align: center ; text-indent: 0px ; text-transform: none ; word-spacing: 0px ; background-color: rgb(255 , 255 , 255) ; display: inline ; float: none&quot;&gt;Amazon Personalize&lt;/span&gt;" style="text;whiteSpace=wrap;html=1;" vertex="1" parent="T6SNYKoOjUwyvL6z8UAZ-1">
          <mxGeometry x="10" y="623" width="120" height="30" as="geometry" />
        </mxCell>
        <mxCell id="T6SNYKoOjUwyvL6z8UAZ-18" value="" style="edgeStyle=orthogonalEdgeStyle;rounded=0;orthogonalLoop=1;jettySize=auto;html=1;" edge="1" parent="T6SNYKoOjUwyvL6z8UAZ-1" source="T6SNYKoOjUwyvL6z8UAZ-19" target="T6SNYKoOjUwyvL6z8UAZ-16">
          <mxGeometry relative="1" as="geometry" />
        </mxCell>
        <mxCell id="T6SNYKoOjUwyvL6z8UAZ-19" value="AWS Lambda" style="outlineConnect=0;fontColor=#232F3E;gradientColor=none;strokeColor=#ffffff;fillColor=#232F3E;dashed=0;verticalLabelPosition=middle;verticalAlign=bottom;align=center;html=1;whiteSpace=wrap;fontSize=10;fontStyle=1;spacing=3;shape=mxgraph.aws4.productIcon;prIcon=mxgraph.aws4.lambda;" vertex="1" parent="T6SNYKoOjUwyvL6z8UAZ-1">
          <mxGeometry x="30" y="380" width="80" height="100" as="geometry" />
        </mxCell>
        <mxCell id="T6SNYKoOjUwyvL6z8UAZ-20" value="" style="edgeStyle=orthogonalEdgeStyle;rounded=0;orthogonalLoop=1;jettySize=auto;html=1;" edge="1" parent="T6SNYKoOjUwyvL6z8UAZ-1" source="T6SNYKoOjUwyvL6z8UAZ-12" target="T6SNYKoOjUwyvL6z8UAZ-19">
          <mxGeometry relative="1" as="geometry" />
        </mxCell>
        <mxCell id="T6SNYKoOjUwyvL6z8UAZ-21" value="" style="edgeStyle=orthogonalEdgeStyle;rounded=0;orthogonalLoop=1;jettySize=auto;html=1;" edge="1" parent="T6SNYKoOjUwyvL6z8UAZ-1" source="T6SNYKoOjUwyvL6z8UAZ-22" target="T6SNYKoOjUwyvL6z8UAZ-17">
          <mxGeometry relative="1" as="geometry" />
        </mxCell>
        <mxCell id="T6SNYKoOjUwyvL6z8UAZ-22" value="Amazon S3" style="outlineConnect=0;fontColor=#232F3E;gradientColor=none;strokeColor=#ffffff;fillColor=#232F3E;dashed=0;verticalLabelPosition=middle;verticalAlign=bottom;align=center;html=1;whiteSpace=wrap;fontSize=10;fontStyle=1;spacing=3;shape=mxgraph.aws4.productIcon;prIcon=mxgraph.aws4.s3;" vertex="1" parent="T6SNYKoOjUwyvL6z8UAZ-1">
          <mxGeometry x="190" y="638" width="80" height="100" as="geometry" />
        </mxCell>
        <mxCell id="T6SNYKoOjUwyvL6z8UAZ-23" value="" style="edgeStyle=orthogonalEdgeStyle;rounded=0;orthogonalLoop=1;jettySize=auto;html=1;fontColor=#FF99CC;" edge="1" parent="T6SNYKoOjUwyvL6z8UAZ-1" source="T6SNYKoOjUwyvL6z8UAZ-24" target="T6SNYKoOjUwyvL6z8UAZ-12">
          <mxGeometry relative="1" as="geometry" />
        </mxCell>
        <mxCell id="T6SNYKoOjUwyvL6z8UAZ-24" value="Amazon EC2" style="outlineConnect=0;fontColor=#232F3E;gradientColor=none;strokeColor=#ffffff;fillColor=#232F3E;dashed=0;verticalLabelPosition=middle;verticalAlign=bottom;align=center;html=1;whiteSpace=wrap;fontSize=10;fontStyle=1;spacing=3;shape=mxgraph.aws4.productIcon;prIcon=mxgraph.aws4.ec2;" vertex="1" parent="T6SNYKoOjUwyvL6z8UAZ-1">
          <mxGeometry x="390" y="402" width="80" height="100" as="geometry" />
        </mxCell>
        <mxCell id="T6SNYKoOjUwyvL6z8UAZ-25" value="" style="edgeStyle=orthogonalEdgeStyle;rounded=0;orthogonalLoop=1;jettySize=auto;html=1;" edge="1" parent="T6SNYKoOjUwyvL6z8UAZ-1" source="T6SNYKoOjUwyvL6z8UAZ-26" target="T6SNYKoOjUwyvL6z8UAZ-22">
          <mxGeometry relative="1" as="geometry" />
        </mxCell>
        <mxCell id="T6SNYKoOjUwyvL6z8UAZ-26" value="Amazon RDS" style="outlineConnect=0;fontColor=#232F3E;gradientColor=none;strokeColor=#ffffff;fillColor=#232F3E;dashed=0;verticalLabelPosition=middle;verticalAlign=bottom;align=center;html=1;whiteSpace=wrap;fontSize=10;fontStyle=1;spacing=3;shape=mxgraph.aws4.productIcon;prIcon=mxgraph.aws4.rds;" vertex="1" parent="T6SNYKoOjUwyvL6z8UAZ-1">
          <mxGeometry x="390" y="546" width="80" height="100" as="geometry" />
        </mxCell>
        <mxCell id="T6SNYKoOjUwyvL6z8UAZ-27" value="" style="edgeStyle=orthogonalEdgeStyle;rounded=0;orthogonalLoop=1;jettySize=auto;html=1;" edge="1" parent="T6SNYKoOjUwyvL6z8UAZ-1" source="T6SNYKoOjUwyvL6z8UAZ-24" target="T6SNYKoOjUwyvL6z8UAZ-26">
          <mxGeometry relative="1" as="geometry" />
        </mxCell>
        <mxCell id="T6SNYKoOjUwyvL6z8UAZ-28" value="Private subnet" style="points=[[0,0],[0.25,0],[0.5,0],[0.75,0],[1,0],[1,0.25],[1,0.5],[1,0.75],[1,1],[0.75,1],[0.5,1],[0.25,1],[0,1],[0,0.75],[0,0.5],[0,0.25]];outlineConnect=0;gradientColor=none;html=1;whiteSpace=wrap;fontSize=12;fontStyle=0;shape=mxgraph.aws4.group;grIcon=mxgraph.aws4.group_security_group;grStroke=0;strokeColor=#147EBA;fillColor=#E6F2F8;verticalAlign=top;align=left;spacingLeft=30;fontColor=#147EBA;dashed=0;" vertex="1" parent="T6SNYKoOjUwyvL6z8UAZ-1">
          <mxGeometry x="565" y="380" width="130" height="130" as="geometry" />
        </mxCell>
        <mxCell id="T6SNYKoOjUwyvL6z8UAZ-29" value="Private subnet" style="points=[[0,0],[0.25,0],[0.5,0],[0.75,0],[1,0],[1,0.25],[1,0.5],[1,0.75],[1,1],[0.75,1],[0.5,1],[0.25,1],[0,1],[0,0.75],[0,0.5],[0,0.25]];outlineConnect=0;gradientColor=none;html=1;whiteSpace=wrap;fontSize=12;fontStyle=0;shape=mxgraph.aws4.group;grIcon=mxgraph.aws4.group_security_group;grStroke=0;strokeColor=#147EBA;fillColor=#E6F2F8;verticalAlign=top;align=left;spacingLeft=30;fontColor=#147EBA;dashed=0;" vertex="1" parent="T6SNYKoOjUwyvL6z8UAZ-1">
          <mxGeometry x="565" y="523" width="130" height="130" as="geometry" />
        </mxCell>
        <mxCell id="T6SNYKoOjUwyvL6z8UAZ-30" value="Amazon EC2" style="outlineConnect=0;fontColor=#232F3E;gradientColor=none;strokeColor=#ffffff;fillColor=#232F3E;dashed=0;verticalLabelPosition=middle;verticalAlign=bottom;align=center;html=1;whiteSpace=wrap;fontSize=10;fontStyle=1;spacing=3;shape=mxgraph.aws4.productIcon;prIcon=mxgraph.aws4.ec2;" vertex="1" parent="T6SNYKoOjUwyvL6z8UAZ-1">
          <mxGeometry x="590" y="402" width="80" height="100" as="geometry" />
        </mxCell>
        <mxCell id="T6SNYKoOjUwyvL6z8UAZ-31" value="Amazon RDS" style="outlineConnect=0;fontColor=#232F3E;gradientColor=none;strokeColor=#ffffff;fillColor=#232F3E;dashed=0;verticalLabelPosition=middle;verticalAlign=bottom;align=center;html=1;whiteSpace=wrap;fontSize=10;fontStyle=1;spacing=3;shape=mxgraph.aws4.productIcon;prIcon=mxgraph.aws4.rds;" vertex="1" parent="T6SNYKoOjUwyvL6z8UAZ-1">
          <mxGeometry x="590" y="546" width="80" height="100" as="geometry" />
        </mxCell>
        <mxCell id="T6SNYKoOjUwyvL6z8UAZ-32" value="" style="edgeStyle=orthogonalEdgeStyle;rounded=0;orthogonalLoop=1;jettySize=auto;html=1;" edge="1" parent="T6SNYKoOjUwyvL6z8UAZ-1" source="T6SNYKoOjUwyvL6z8UAZ-42" target="T6SNYKoOjUwyvL6z8UAZ-30">
          <mxGeometry relative="1" as="geometry">
            <mxPoint x="680" y="293.05882352941194" as="sourcePoint" />
            <mxPoint x="620" y="380" as="targetPoint" />
          </mxGeometry>
        </mxCell>
        <mxCell id="T6SNYKoOjUwyvL6z8UAZ-33" value="" style="edgeStyle=orthogonalEdgeStyle;rounded=0;orthogonalLoop=1;jettySize=auto;html=1;" edge="1" parent="T6SNYKoOjUwyvL6z8UAZ-1" source="T6SNYKoOjUwyvL6z8UAZ-30" target="T6SNYKoOjUwyvL6z8UAZ-31">
          <mxGeometry relative="1" as="geometry">
            <mxPoint x="695" y="499.998823529412" as="sourcePoint" />
            <mxPoint x="755" y="586.94" as="targetPoint" />
          </mxGeometry>
        </mxCell>
        <mxCell id="T6SNYKoOjUwyvL6z8UAZ-34" value="" style="edgeStyle=orthogonalEdgeStyle;rounded=0;orthogonalLoop=1;jettySize=auto;html=1;exitX=0.5;exitY=1;exitDx=0;exitDy=0;" edge="1" parent="T6SNYKoOjUwyvL6z8UAZ-1" source="T6SNYKoOjUwyvL6z8UAZ-29" target="T6SNYKoOjUwyvL6z8UAZ-22">
          <mxGeometry relative="1" as="geometry">
            <mxPoint x="570" y="690" as="sourcePoint" />
            <mxPoint x="450" y="782.0000000000002" as="targetPoint" />
          </mxGeometry>
        </mxCell>
        <mxCell id="T6SNYKoOjUwyvL6z8UAZ-35" value="Private subnet" style="points=[[0,0],[0.25,0],[0.5,0],[0.75,0],[1,0],[1,0.25],[1,0.5],[1,0.75],[1,1],[0.75,1],[0.5,1],[0.25,1],[0,1],[0,0.75],[0,0.5],[0,0.25]];outlineConnect=0;gradientColor=none;html=1;whiteSpace=wrap;fontSize=12;fontStyle=0;shape=mxgraph.aws4.group;grIcon=mxgraph.aws4.group_security_group;grStroke=0;strokeColor=#147EBA;fillColor=#E6F2F8;verticalAlign=top;align=left;spacingLeft=30;fontColor=#147EBA;dashed=0;" vertex="1" parent="T6SNYKoOjUwyvL6z8UAZ-1">
          <mxGeometry x="740" y="380" width="130" height="130" as="geometry" />
        </mxCell>
        <mxCell id="T6SNYKoOjUwyvL6z8UAZ-36" value="Private subnet" style="points=[[0,0],[0.25,0],[0.5,0],[0.75,0],[1,0],[1,0.25],[1,0.5],[1,0.75],[1,1],[0.75,1],[0.5,1],[0.25,1],[0,1],[0,0.75],[0,0.5],[0,0.25]];outlineConnect=0;gradientColor=none;html=1;whiteSpace=wrap;fontSize=12;fontStyle=0;shape=mxgraph.aws4.group;grIcon=mxgraph.aws4.group_security_group;grStroke=0;strokeColor=#147EBA;fillColor=#E6F2F8;verticalAlign=top;align=left;spacingLeft=30;fontColor=#147EBA;dashed=0;" vertex="1" parent="T6SNYKoOjUwyvL6z8UAZ-1">
          <mxGeometry x="740" y="523" width="130" height="130" as="geometry" />
        </mxCell>
        <mxCell id="T6SNYKoOjUwyvL6z8UAZ-37" value="Amazon EC2" style="outlineConnect=0;fontColor=#232F3E;gradientColor=none;strokeColor=#ffffff;fillColor=#232F3E;dashed=0;verticalLabelPosition=middle;verticalAlign=bottom;align=center;html=1;whiteSpace=wrap;fontSize=10;fontStyle=1;spacing=3;shape=mxgraph.aws4.productIcon;prIcon=mxgraph.aws4.ec2;" vertex="1" parent="T6SNYKoOjUwyvL6z8UAZ-1">
          <mxGeometry x="765" y="402" width="80" height="100" as="geometry" />
        </mxCell>
        <mxCell id="T6SNYKoOjUwyvL6z8UAZ-38" value="Amazon RDS" style="outlineConnect=0;fontColor=#232F3E;gradientColor=none;strokeColor=#ffffff;fillColor=#232F3E;dashed=0;verticalLabelPosition=middle;verticalAlign=bottom;align=center;html=1;whiteSpace=wrap;fontSize=10;fontStyle=1;spacing=3;shape=mxgraph.aws4.productIcon;prIcon=mxgraph.aws4.rds;" vertex="1" parent="T6SNYKoOjUwyvL6z8UAZ-1">
          <mxGeometry x="765" y="546" width="80" height="100" as="geometry" />
        </mxCell>
        <mxCell id="T6SNYKoOjUwyvL6z8UAZ-39" value="Public subnet" style="points=[[0,0],[0.25,0],[0.5,0],[0.75,0],[1,0],[1,0.25],[1,0.5],[1,0.75],[1,1],[0.75,1],[0.5,1],[0.25,1],[0,1],[0,0.75],[0,0.5],[0,0.25]];outlineConnect=0;gradientColor=none;html=1;whiteSpace=wrap;fontSize=12;fontStyle=0;shape=mxgraph.aws4.group;grIcon=mxgraph.aws4.group_security_group;grStroke=0;strokeColor=#248814;fillColor=#E9F3E6;verticalAlign=top;align=left;spacingLeft=30;fontColor=#248814;dashed=0;" vertex="1" parent="T6SNYKoOjUwyvL6z8UAZ-1">
          <mxGeometry x="740" y="240" width="130" height="130" as="geometry" />
        </mxCell>
        <mxCell id="T6SNYKoOjUwyvL6z8UAZ-40" value="Application Load Balancer" style="outlineConnect=0;fontColor=#232F3E;gradientColor=none;strokeColor=#ffffff;fillColor=#232F3E;dashed=0;verticalLabelPosition=middle;verticalAlign=bottom;align=center;html=1;whiteSpace=wrap;fontSize=10;fontStyle=1;spacing=3;shape=mxgraph.aws4.productIcon;prIcon=mxgraph.aws4.application_load_balancer;" vertex="1" parent="T6SNYKoOjUwyvL6z8UAZ-1">
          <mxGeometry x="765" y="260" width="80" height="110" as="geometry" />
        </mxCell>
        <mxCell id="T6SNYKoOjUwyvL6z8UAZ-41" value="" style="edgeStyle=orthogonalEdgeStyle;rounded=0;orthogonalLoop=1;jettySize=auto;html=1;exitX=0.5;exitY=1;exitDx=0;exitDy=0;" edge="1" parent="T6SNYKoOjUwyvL6z8UAZ-1" source="T6SNYKoOjUwyvL6z8UAZ-36" target="T6SNYKoOjUwyvL6z8UAZ-22">
          <mxGeometry relative="1" as="geometry">
            <mxPoint x="894" y="710.0599999999997" as="sourcePoint" />
            <mxPoint x="534" y="745.0600000000002" as="targetPoint" />
          </mxGeometry>
        </mxCell>
        <mxCell id="T6SNYKoOjUwyvL6z8UAZ-42" value="Application Load Balancer" style="outlineConnect=0;fontColor=#232F3E;gradientColor=none;strokeColor=#ffffff;fillColor=#232F3E;dashed=0;verticalLabelPosition=middle;verticalAlign=bottom;align=center;html=1;whiteSpace=wrap;fontSize=10;fontStyle=1;spacing=3;shape=mxgraph.aws4.productIcon;prIcon=mxgraph.aws4.application_load_balancer;" vertex="1" parent="T6SNYKoOjUwyvL6z8UAZ-1">
          <mxGeometry x="494" y="260" width="80" height="110" as="geometry" />
        </mxCell>
        <mxCell id="T6SNYKoOjUwyvL6z8UAZ-43" value="&lt;span style=&quot;font-family: helvetica; letter-spacing: normal; text-align: left; text-indent: 0px; text-transform: none; word-spacing: 0px; display: inline; float: none;&quot;&gt;&lt;font style=&quot;font-size: 18px&quot; color=&quot;#ff99cc&quot;&gt;&lt;b&gt;&lt;i&gt;Product&lt;/i&gt;&lt;/b&gt;&lt;/font&gt;&lt;/span&gt;" style="text;whiteSpace=wrap;html=1;labelBackgroundColor=none;fillColor=#fff2cc;" vertex="1" parent="T6SNYKoOjUwyvL6z8UAZ-1">
          <mxGeometry x="494" y="703" width="80" height="20" as="geometry" />
        </mxCell>
        <mxCell id="T6SNYKoOjUwyvL6z8UAZ-44" value="&lt;span style=&quot;font-family: &amp;#34;helvetica&amp;#34; ; letter-spacing: normal ; text-align: left ; text-indent: 0px ; text-transform: none ; word-spacing: 0px ; display: inline ; float: none&quot;&gt;&lt;font style=&quot;font-size: 18px&quot;&gt;&lt;b&gt;&lt;i&gt;Develop&lt;/i&gt;&lt;/b&gt;&lt;/font&gt;&lt;/span&gt;" style="text;whiteSpace=wrap;html=1;labelBackgroundColor=none;fillColor=#ffe6cc;fontColor=#FF99CC;" vertex="1" parent="T6SNYKoOjUwyvL6z8UAZ-1">
          <mxGeometry x="768.75" y="703" width="72.5" height="20" as="geometry" />
        </mxCell>
        <mxCell id="T6SNYKoOjUwyvL6z8UAZ-45" value="" style="edgeStyle=orthogonalEdgeStyle;rounded=0;orthogonalLoop=1;jettySize=auto;html=1;" edge="1" parent="T6SNYKoOjUwyvL6z8UAZ-1" source="T6SNYKoOjUwyvL6z8UAZ-42" target="T6SNYKoOjUwyvL6z8UAZ-24">
          <mxGeometry relative="1" as="geometry">
            <mxPoint x="410" y="315" as="targetPoint" />
          </mxGeometry>
        </mxCell>
        <mxCell id="T6SNYKoOjUwyvL6z8UAZ-46" value="" style="edgeStyle=orthogonalEdgeStyle;rounded=0;orthogonalLoop=1;jettySize=auto;html=1;fontColor=#FF99CC;" edge="1" parent="T6SNYKoOjUwyvL6z8UAZ-1" source="T6SNYKoOjUwyvL6z8UAZ-30" target="T6SNYKoOjUwyvL6z8UAZ-12">
          <mxGeometry relative="1" as="geometry">
            <mxPoint x="270" y="302" as="sourcePoint" />
            <mxPoint x="150" y="280" as="targetPoint" />
            <Array as="points">
              <mxPoint x="330" y="452" />
              <mxPoint x="330" y="430" />
            </Array>
          </mxGeometry>
        </mxCell>
        <mxCell id="T6SNYKoOjUwyvL6z8UAZ-47" value="" style="edgeStyle=orthogonalEdgeStyle;rounded=0;orthogonalLoop=1;jettySize=auto;html=1;fontColor=#FF99CC;" edge="1" parent="T6SNYKoOjUwyvL6z8UAZ-1" source="T6SNYKoOjUwyvL6z8UAZ-37" target="T6SNYKoOjUwyvL6z8UAZ-12">
          <mxGeometry relative="1" as="geometry">
            <mxPoint x="730" y="451" as="sourcePoint" />
            <mxPoint x="410" y="429" as="targetPoint" />
            <Array as="points">
              <mxPoint x="330" y="451" />
              <mxPoint x="330" y="429" />
            </Array>
          </mxGeometry>
        </mxCell>
        <mxCell id="T6SNYKoOjUwyvL6z8UAZ-48" value="" style="edgeStyle=orthogonalEdgeStyle;rounded=0;orthogonalLoop=1;jettySize=auto;html=1;" edge="1" parent="T6SNYKoOjUwyvL6z8UAZ-1" source="T6SNYKoOjUwyvL6z8UAZ-40" target="T6SNYKoOjUwyvL6z8UAZ-37">
          <mxGeometry relative="1" as="geometry">
            <mxPoint x="921" y="369.99882352941194" as="sourcePoint" />
            <mxPoint x="977.0588235294122" y="456.94" as="targetPoint" />
          </mxGeometry>
        </mxCell>
        <mxCell id="T6SNYKoOjUwyvL6z8UAZ-49" value="" style="edgeStyle=orthogonalEdgeStyle;rounded=0;orthogonalLoop=1;jettySize=auto;html=1;fontColor=#FF99CC;" edge="1" parent="T6SNYKoOjUwyvL6z8UAZ-1" source="T6SNYKoOjUwyvL6z8UAZ-50" target="T6SNYKoOjUwyvL6z8UAZ-13">
          <mxGeometry relative="1" as="geometry" />
        </mxCell>
        <mxCell id="T6SNYKoOjUwyvL6z8UAZ-50" value="" style="outlineConnect=0;dashed=0;verticalLabelPosition=bottom;verticalAlign=top;align=center;html=1;shape=mxgraph.aws3.internet_2;fillColor=#D2D3D3;gradientColor=none;labelBackgroundColor=none;fontColor=#FF99CC;" vertex="1" parent="T6SNYKoOjUwyvL6z8UAZ-1">
          <mxGeometry x="71" y="20" width="79.5" height="54" as="geometry" />
        </mxCell>
        <mxCell id="T6SNYKoOjUwyvL6z8UAZ-51" value="" style="edgeStyle=orthogonalEdgeStyle;rounded=0;orthogonalLoop=1;jettySize=auto;html=1;fontColor=#FF99CC;" edge="1" parent="T6SNYKoOjUwyvL6z8UAZ-1" source="T6SNYKoOjUwyvL6z8UAZ-10" target="T6SNYKoOjUwyvL6z8UAZ-50">
          <mxGeometry relative="1" as="geometry" />
        </mxCell>
        <mxCell id="T6SNYKoOjUwyvL6z8UAZ-52" value="&lt;span style=&quot;color: rgb(35 , 47 , 62) ; font-family: &amp;#34;helvetica&amp;#34; ; background-color: rgb(255 , 255 , 255)&quot;&gt;Internet&lt;/span&gt;" style="text;whiteSpace=wrap;html=1;" vertex="1" parent="T6SNYKoOjUwyvL6z8UAZ-1">
          <mxGeometry x="87.75" y="74" width="46" height="30" as="geometry" />
        </mxCell>
        <mxCell id="T6SNYKoOjUwyvL6z8UAZ-53" value="Internet&#xa;gateway" style="outlineConnect=0;fontColor=#232F3E;gradientColor=none;strokeColor=#232F3E;fillColor=#ffffff;dashed=0;verticalLabelPosition=bottom;verticalAlign=top;align=center;html=1;fontSize=12;fontStyle=0;aspect=fixed;shape=mxgraph.aws4.resourceIcon;resIcon=mxgraph.aws4.internet_gateway;labelBackgroundColor=none;" vertex="1" parent="T6SNYKoOjUwyvL6z8UAZ-1">
          <mxGeometry x="504" y="25" width="60" height="60" as="geometry" />
        </mxCell>
        <mxCell id="T6SNYKoOjUwyvL6z8UAZ-54" value="" style="edgeStyle=orthogonalEdgeStyle;rounded=0;orthogonalLoop=1;jettySize=auto;html=1;" edge="1" parent="T6SNYKoOjUwyvL6z8UAZ-1" source="T6SNYKoOjUwyvL6z8UAZ-14" target="T6SNYKoOjUwyvL6z8UAZ-53">
          <mxGeometry relative="1" as="geometry">
            <mxPoint x="431" y="55.05882352941171" as="sourcePoint" />
            <mxPoint x="534.0588235294117" y="260" as="targetPoint" />
          </mxGeometry>
        </mxCell>
        <mxCell id="T6SNYKoOjUwyvL6z8UAZ-55" value="Router" style="outlineConnect=0;fontColor=#232F3E;gradientColor=none;strokeColor=#232F3E;fillColor=#ffffff;dashed=0;verticalLabelPosition=bottom;verticalAlign=top;align=center;html=1;fontSize=12;fontStyle=0;aspect=fixed;shape=mxgraph.aws4.resourceIcon;resIcon=mxgraph.aws4.router;labelBackgroundColor=none;" vertex="1" parent="T6SNYKoOjUwyvL6z8UAZ-1">
          <mxGeometry x="504" y="136" width="60" height="60" as="geometry" />
        </mxCell>
        <mxCell id="T6SNYKoOjUwyvL6z8UAZ-56" value="" style="edgeStyle=orthogonalEdgeStyle;rounded=0;orthogonalLoop=1;jettySize=auto;html=1;fontColor=#FF99CC;" edge="1" parent="T6SNYKoOjUwyvL6z8UAZ-1" source="T6SNYKoOjUwyvL6z8UAZ-57" target="T6SNYKoOjUwyvL6z8UAZ-40">
          <mxGeometry relative="1" as="geometry" />
        </mxCell>
        <mxCell id="T6SNYKoOjUwyvL6z8UAZ-57" value="NAT gateway" style="outlineConnect=0;fontColor=#232F3E;gradientColor=none;strokeColor=#232F3E;fillColor=#ffffff;dashed=0;verticalLabelPosition=bottom;verticalAlign=top;align=center;html=1;fontSize=12;fontStyle=0;aspect=fixed;shape=mxgraph.aws4.resourceIcon;resIcon=mxgraph.aws4.nat_gateway;labelBackgroundColor=none;" vertex="1" parent="T6SNYKoOjUwyvL6z8UAZ-1">
          <mxGeometry x="775" y="136" width="60" height="60" as="geometry" />
        </mxCell>
        <mxCell id="T6SNYKoOjUwyvL6z8UAZ-58" value="" style="edgeStyle=orthogonalEdgeStyle;rounded=0;orthogonalLoop=1;jettySize=auto;html=1;" edge="1" parent="T6SNYKoOjUwyvL6z8UAZ-1" source="T6SNYKoOjUwyvL6z8UAZ-55" target="T6SNYKoOjUwyvL6z8UAZ-57">
          <mxGeometry relative="1" as="geometry">
            <mxPoint x="564" y="166" as="sourcePoint" />
            <mxPoint x="1301" y="110" as="targetPoint" />
          </mxGeometry>
        </mxCell>
        <mxCell id="T6SNYKoOjUwyvL6z8UAZ-59" value="" style="edgeStyle=orthogonalEdgeStyle;rounded=0;orthogonalLoop=1;jettySize=auto;html=1;" edge="1" parent="T6SNYKoOjUwyvL6z8UAZ-1" source="T6SNYKoOjUwyvL6z8UAZ-53" target="T6SNYKoOjUwyvL6z8UAZ-42">
          <mxGeometry relative="1" as="geometry" />
        </mxCell>
        <mxCell id="T6SNYKoOjUwyvL6z8UAZ-60" value="Availability Zone" style="fillColor=none;strokeColor=#147EBA;dashed=1;verticalAlign=top;fontStyle=0;fontColor=#147EBA;" vertex="1" parent="T6SNYKoOjUwyvL6z8UAZ-1">
          <mxGeometry x="350" y="220" width="160" height="440" as="geometry" />
        </mxCell>
        <mxCell id="T6SNYKoOjUwyvL6z8UAZ-61" value="Availability Zone" style="fillColor=none;strokeColor=#147EBA;dashed=1;verticalAlign=top;fontStyle=0;fontColor=#147EBA;" vertex="1" parent="T6SNYKoOjUwyvL6z8UAZ-1">
          <mxGeometry x="550" y="220" width="361" height="440" as="geometry" />
        </mxCell>
        <mxCell id="T6SNYKoOjUwyvL6z8UAZ-62" value="Auto Scaling group" style="points=[[0,0],[0.25,0],[0.5,0],[0.75,0],[1,0],[1,0.25],[1,0.5],[1,0.75],[1,1],[0.75,1],[0.5,1],[0.25,1],[0,1],[0,0.75],[0,0.5],[0,0.25]];outlineConnect=0;gradientColor=none;html=1;whiteSpace=wrap;fontSize=12;fontStyle=0;shape=mxgraph.aws4.groupCenter;grIcon=mxgraph.aws4.group_auto_scaling_group;grStroke=1;strokeColor=#D86613;fillColor=none;verticalAlign=top;align=center;fontColor=#D86613;dashed=1;spacingTop=25;labelBackgroundColor=none;" vertex="1" parent="T6SNYKoOjUwyvL6z8UAZ-1">
          <mxGeometry x="360" y="370" width="340" height="150" as="geometry" />
        </mxCell>
      </root>
    </mxGraphModel>
  </diagram>
</mxfile>
